# xmcd
#
# Track frame offsets:
#	150
#	13860
#	26505
#	39284
#	52970
#	64411
#	78163
#	91730
#	119817
#	128876
#	142021
#	156217
#	172246
#	186197
#	199604
#	212862
#
# Disc length: 3024 seconds
#
# Revision: 1
# Processed by: cddbd v1.5.2PL0 Copyright (c) Steve Scherf et al.
# Submitted via: audiograbber 1.82.02
#
DISCID=e40bce10
DTITLE=B.B. King - Great Blues Masters Vol.1
DYEAR=2006
DGENRE=Blues
TTITLE0=You Upset Me Baby
TTITLE1=Ten Long Years
TTITLE2=Every Day I Have the Blues
TTITLE3=Sweet Little Angel
TTITLE4=Eyesight to the Blind
TTITLE5=3 O'Clock Blues
TTITLE6=Rock Me Baby
TTITLE7=Sweet Sixteen (Part 1 and 2)
TTITLE8=Beautician Blues
TTITLE9=When My Heart Beats Like a Hammer
TTITLE10=Whole Lotta' Love
TTITLE11=My Own Fault
TTITLE12=Blind Love
TTITLE13=Woke Up This Morning
TTITLE14=Troubles, Troubles, Troubles
TTITLE15=You Know I Love You
EXTD=
EXTT0=
EXTT1=
EXTT2=
EXTT3=
EXTT4=
EXTT5=
EXTT6=
EXTT7=
EXTT8=
EXTT9=
EXTT10=
EXTT11=
EXTT12=
EXTT13=
EXTT14=
EXTT15=
PLAYORDER=
